<?xml version="1.0" encoding="utf-8"?>
<!-- Svg Vector Icons : http://www.onlinewebfonts.com/icon -->
<!DOCTYPE svg PUBLIC "-//W3C//DTD SVG 1.1//EN" "http://www.w3.org/Graphics/SVG/1.1/DTD/svg11.dtd">
<svg version="1.1" xmlns="http://www.w3.org/2000/svg" xmlns:xlink="http://www.w3.org/1999/xlink" x="0px" y="0px" viewBox="0 0 1000 1000" enable-background="new 0 0 1000 1000" xml:space="preserve" width="20px">
<metadata> Svg Vector Icons : http://www.onlinewebfonts.com/icon </metadata>
<g><g transform="translate(0.000000,512.000000) scale(0.100000,-0.100000)"><path d="M5661.6,5006.8c-95.9-34.5-176.4-105.5-222.5-201.4c-44.1-86.3-46-113.1-46-456.4c0-251.2,7.7-385.5,24.9-435.3c28.8-80.5,170.7-218.6,241.7-237.8c26.8-5.8,49.9-15.3,49.9-19.2c0-5.7-19.2-40.3-44.1-80.5c-132.3-211-391.3-849.6-550.4-1357.8l-78.6-253.1l-147.7,82.5c-234,132.3-268.5,126.6-464.1-59.5l-153.4-145.8l-118.9,90.1c-410.4,304.9-995.3,448.8-1499.7,366.3C1751.2,2149.3,1116.4,1480,976.4,528.7l-30.7-212.9l-232.1-7.7c-258.9-7.7-333.7-34.5-462.2-163C109.6,3.3,100-40.9,100-570.2c0-454.5,1.9-471.8,44.1-556.2c92.1-178.3,253.2-293.4,443-318.3l97.8-13.4v-314.5v-314.5l174.5-579.2c354.8-1185.2,498.6-1632.1,554.2-1737.5c86.3-161.1,205.2-287.7,314.5-339.4l97.8-46h3160.5c2282.2,0,3185.5,5.8,3246.8,21.1c115.1,28.8,253.2,157.3,331.8,304.9c63.3,118.9,170.7,450.7,550.4,1710.7l199.5,665.5v314.5v314.5l97.8,13.4c189.9,24.9,351,140,443,318.3c42.2,84.4,44.1,101.6,44.1,556.2c0,529.3-9.6,573.4-151.5,715.3c-145.8,145.8-186,157.3-619.5,163l-389.3,5.8v195.6c-1.9,274.3-28.8,538.9-88.2,818.9c-141.9,677-452.6,1587.9-717.3,2109.6c-63.3,120.8-111.2,220.6-109.3,220.6c1.9,0,47.9,23,99.7,49.9c103.6,53.7,170.7,136.2,201.4,245.5c26.9,95.9,24.9,675.1-3.8,784.4c-26.8,109.3-151.5,241.7-257,270.4C7763.6,5037.5,5742.2,5035.6,5661.6,5006.8z M7738.6,4345.2l5.8-293.4h-980h-978.1v283.8c0,157.3,5.8,291.5,13.4,297.3c5.8,7.7,444.9,11.5,972.3,9.6l960.8-5.8L7738.6,4345.2z M7418.3,3545.4c205.2-270.4,529.3-1077.8,734.5-1825.8c134.2-491,168.8-696.2,178.4-1066.3l9.6-341.4h-193.7h-193.7l-1275.3,723c-784.4,444.9-1275.4,734.5-1275.4,751.8c0,44.1,145.8,514,237.8,763.3c182.2,491,389.3,920.5,506.3,1047.1l49.9,51.8l575.3-3.8l575.3-5.7L7418.3,3545.4z M3417.8,1865.4c163-51.8,364.4-149.6,479.5-232.1l84.4-61.4l-176.4-166.9c-97.8-92.1-397-375.9-665.5-629l-489-464.1h-646.3h-648.2v65.2c0,211,124.7,600.3,260.8,813.1c241.6,377.8,617.5,632.9,1062.5,721.1c26.8,3.8,172.6,5.8,326,3.8C3229.9,1909.5,3310.4,1900,3417.8,1865.4z M5939.7,1002.4c638.6-360.5,1167.9-663.6,1179.5-673.2c9.6-9.6-807.4-17.3-1937-17.3H3226l86.3,84.4c47.9,47.9,379.7,362.5,736.4,698.1c607.9,573.4,654,611.8,690.4,588.8C4762.2,1669.8,5301.1,1363,5939.7,1002.4z M9430.1-100.3c84.4-44.1,99.7-136.2,92.1-519.7c-5.8-318.4-7.7-331.8-51.8-379.7l-46-49.9H5000H575.6l-46,49.9c-44.1,47.9-46,61.4-51.8,379.7c-7.7,377.8,7.7,475.6,88.2,517.8c46,24.9,609.9,28.8,4430.1,30.7C8860.5-71.6,9380.3-75.4,9430.1-100.3z M2453.2-2670.2l5.8-1217.8l53.7-51.8l51.8-53.7h374h374l51.8,53.7l53.7,51.8l5.8,1217.8l3.8,1217.8h201.4h201.4V-2651c0-1321.4-3.8-1288.8,117-1331c86.3-30.7,684.7-26.8,746,3.8c26.9,13.4,63.3,53.7,80.6,90.1c32.6,61.4,34.5,163,34.5,1252.3v1183.3H5000h189.9l5.8-1217.8l5.7-1217.8l53.7-51.8l51.8-53.7l343.3-5.7c381.6-7.7,466,9.6,500.5,101.6c11.5,30.7,19.2,500.5,19.2,1248.5v1196.7h201.4h201.4l3.8-1217.8l5.7-1217.8l53.7-51.8l51.8-53.7h374h374l51.8,53.7l53.7,51.8l5.8,1217.8l3.8,1217.8h690.4h690.4v-272.3V-1997l-136.2-450.7C8275.6-4185.3,8225.8-4331,8126-4380.9c-63.3-32.6-6175.3-36.4-6234.8-3.8c-117,61.4-170.7,214.8-686.6,1937L1068.5-1997v272.3v272.3h690.4h690.4L2453.2-2670.2z M3040-2530.2l-5.7-1079.7h-95.9h-95.9l-5.8,1079.7l-3.8,1077.8h105.5h105.5L3040-2530.2z M4405.5-2535.9v-1083.6h-95.9h-95.9v1083.6v1083.6h95.9h95.9V-2535.9z M5786.3-2535.9v-1083.6h-95.9h-95.9v1083.6v1083.6h95.9h95.9V-2535.9z M7163.3-2530.2l-5.7-1079.7h-95.9h-95.9l-5.8,1079.7l-3.8,1077.8h105.5h105.5L7163.3-2530.2z"/></g></g>
</svg>